# xmcd
#
# Track frame offsets:
#	150
#	35782
#	58093
#	86535
#	113563
#	135302
#	178554
#	211726
#
# Disc length: 3261 seconds
#
# Revision: 0
# Processed by: cddbd v1.5.2PL0 Copyright (c) Steve Scherf et al.
# Submitted via: EZCDAudioConverter 2.1.7.1
#
DISCID=640cbb08
DTITLE=Dave Brubeck Quartet - Time Out 2/2
DYEAR=1961
DGENRE=
TTITLE0=St. Louis Blues [Live At Newport]
TTITLE1=Waltz Limp [Live At Newport]
TTITLE2=Since Love Had Its Way [Live At Newport]
TTITLE3=Koto Song [Live At Newport]
TTITLE4=Pennies From Heaven [Live At Newport]
TTITLE5=You Go To My Head [Live At Newport]
TTITLE6=Blue Rondo À La Turk [Live At Newport]
TTITLE7=Take Five [Live At Newport]
EXTD=
EXTT0=
EXTT1=
EXTT2=
EXTT3=
EXTT4=
EXTT5=
EXTT6=
EXTT7=
PLAYORDER=
